<mxfile host="app.diagrams.net" modified="2023-05-05T18:25:43.117Z" agent="Mozilla/5.0 (X11; Linux x86_64) AppleWebKit/537.36 (KHTML, like Gecko) Chrome/110.0.0.0 Safari/537.36" version="21.2.9" etag="9wv8j8o48NDeGdE_XZZ-" type="github">
  <diagram name="Page-1" id="aSsfQfD3kpa8BYl20_h8">
    <mxGraphModel>
      <root>
        <mxCell id="0" />
        <mxCell id="1" parent="0" />
      </root>
    </mxGraphModel>
  </diagram>
</mxfile>
